<?xml version="1.0" encoding="utf-8" standalone="no"?>
<!DOCTYPE svg PUBLIC "-//W3C//DTD SVG 1.1//EN"
  "http://www.w3.org/Graphics/SVG/1.1/DTD/svg11.dtd">
<svg xmlns:xlink="http://www.w3.org/1999/xlink" width="460.8pt" height="347.04pt" viewBox="0 0 460.8 347.04" xmlns="http://www.w3.org/2000/svg" version="1.1">
 <metadata>
  <rdf:RDF xmlns:dc="http://purl.org/dc/elements/1.1/" xmlns:cc="http://creativecommons.org/ns#" xmlns:rdf="http://www.w3.org/1999/02/22-rdf-syntax-ns#">
   <cc:Work>
    <dc:type rdf:resource="http://purl.org/dc/dcmitype/StillImage"/>
    <dc:date>2026-02-25T10:08:06.787326</dc:date>
    <dc:format>image/svg+xml</dc:format>
    <dc:creator>
     <cc:Agent>
      <dc:title>Matplotlib v3.10.1, https://matplotlib.org/</dc:title>
     </cc:Agent>
    </dc:creator>
   </cc:Work>
  </rdf:RDF>
 </metadata>
 <defs>
  <style type="text/css">*{stroke-linejoin: round; stroke-linecap: butt}</style>
 </defs>
 <g id="figure_1">
  <g id="patch_1">
   <path d="M 0 347.04 
L 460.8 347.04 
L 460.8 -0 
L 0 -0 
z
" style="fill: #ffffff"/>
  </g>
  <g id="axes_1">
   <g id="legend_1">
    <g id="patch_2">
     <path d="M 150.165 268.819688 
L 310.635 268.819688 
Q 313.035 268.819688 313.035 266.419688 
L 313.035 80.620312 
Q 313.035 78.220312 310.635 78.220312 
L 150.165 78.220312 
Q 147.765 78.220312 147.765 80.620312 
L 147.765 266.419688 
Q 147.765 268.819688 150.165 268.819688 
z
" style="fill: #eaeaf2; opacity: 0.8; stroke: #cccccc; stroke-linejoin: miter"/>
    </g>
    <g id="patch_3">
     <path d="M 152.565 91.609687 
L 176.565 91.609687 
L 176.565 83.209687 
L 152.565 83.209687 
z
" style="fill: #1f78b4; stroke: #1f78b4; stroke-linejoin: miter"/>
    </g>
    <g id="text_1">
     <!-- connective tissue cell -->
     <g style="fill: #262626" transform="translate(186.165 91.609687) scale(0.12 -0.12)">
      <defs>
       <path id="ArialMT-63" d="M 2588 1216 
L 3141 1144 
Q 3050 572 2676 248 
Q 2303 -75 1759 -75 
Q 1078 -75 664 370 
Q 250 816 250 1647 
Q 250 2184 428 2587 
Q 606 2991 970 3192 
Q 1334 3394 1763 3394 
Q 2303 3394 2647 3120 
Q 2991 2847 3088 2344 
L 2541 2259 
Q 2463 2594 2264 2762 
Q 2066 2931 1784 2931 
Q 1359 2931 1093 2626 
Q 828 2322 828 1663 
Q 828 994 1084 691 
Q 1341 388 1753 388 
Q 2084 388 2306 591 
Q 2528 794 2588 1216 
z
" transform="scale(0.015625)"/>
       <path id="ArialMT-6f" d="M 213 1659 
Q 213 2581 725 3025 
Q 1153 3394 1769 3394 
Q 2453 3394 2887 2945 
Q 3322 2497 3322 1706 
Q 3322 1066 3130 698 
Q 2938 331 2570 128 
Q 2203 -75 1769 -75 
Q 1072 -75 642 372 
Q 213 819 213 1659 
z
M 791 1659 
Q 791 1022 1069 705 
Q 1347 388 1769 388 
Q 2188 388 2466 706 
Q 2744 1025 2744 1678 
Q 2744 2294 2464 2611 
Q 2184 2928 1769 2928 
Q 1347 2928 1069 2612 
Q 791 2297 791 1659 
z
" transform="scale(0.015625)"/>
       <path id="ArialMT-6e" d="M 422 0 
L 422 3319 
L 928 3319 
L 928 2847 
Q 1294 3394 1984 3394 
Q 2284 3394 2536 3286 
Q 2788 3178 2913 3003 
Q 3038 2828 3088 2588 
Q 3119 2431 3119 2041 
L 3119 0 
L 2556 0 
L 2556 2019 
Q 2556 2363 2490 2533 
Q 2425 2703 2258 2804 
Q 2091 2906 1866 2906 
Q 1506 2906 1245 2678 
Q 984 2450 984 1813 
L 984 0 
L 422 0 
z
" transform="scale(0.015625)"/>
       <path id="ArialMT-65" d="M 2694 1069 
L 3275 997 
Q 3138 488 2766 206 
Q 2394 -75 1816 -75 
Q 1088 -75 661 373 
Q 234 822 234 1631 
Q 234 2469 665 2931 
Q 1097 3394 1784 3394 
Q 2450 3394 2872 2941 
Q 3294 2488 3294 1666 
Q 3294 1616 3291 1516 
L 816 1516 
Q 847 969 1125 678 
Q 1403 388 1819 388 
Q 2128 388 2347 550 
Q 2566 713 2694 1069 
z
M 847 1978 
L 2700 1978 
Q 2663 2397 2488 2606 
Q 2219 2931 1791 2931 
Q 1403 2931 1139 2672 
Q 875 2413 847 1978 
z
" transform="scale(0.015625)"/>
       <path id="ArialMT-74" d="M 1650 503 
L 1731 6 
Q 1494 -44 1306 -44 
Q 1000 -44 831 53 
Q 663 150 594 308 
Q 525 466 525 972 
L 525 2881 
L 113 2881 
L 113 3319 
L 525 3319 
L 525 4141 
L 1084 4478 
L 1084 3319 
L 1650 3319 
L 1650 2881 
L 1084 2881 
L 1084 941 
Q 1084 700 1114 631 
Q 1144 563 1211 522 
Q 1278 481 1403 481 
Q 1497 481 1650 503 
z
" transform="scale(0.015625)"/>
       <path id="ArialMT-69" d="M 425 3934 
L 425 4581 
L 988 4581 
L 988 3934 
L 425 3934 
z
M 425 0 
L 425 3319 
L 988 3319 
L 988 0 
L 425 0 
z
" transform="scale(0.015625)"/>
       <path id="ArialMT-76" d="M 1344 0 
L 81 3319 
L 675 3319 
L 1388 1331 
Q 1503 1009 1600 663 
Q 1675 925 1809 1294 
L 2547 3319 
L 3125 3319 
L 1869 0 
L 1344 0 
z
" transform="scale(0.015625)"/>
       <path id="ArialMT-20" transform="scale(0.015625)"/>
       <path id="ArialMT-73" d="M 197 991 
L 753 1078 
Q 800 744 1014 566 
Q 1228 388 1613 388 
Q 2000 388 2187 545 
Q 2375 703 2375 916 
Q 2375 1106 2209 1216 
Q 2094 1291 1634 1406 
Q 1016 1563 777 1677 
Q 538 1791 414 1992 
Q 291 2194 291 2438 
Q 291 2659 392 2848 
Q 494 3038 669 3163 
Q 800 3259 1026 3326 
Q 1253 3394 1513 3394 
Q 1903 3394 2198 3281 
Q 2494 3169 2634 2976 
Q 2775 2784 2828 2463 
L 2278 2388 
Q 2241 2644 2061 2787 
Q 1881 2931 1553 2931 
Q 1166 2931 1000 2803 
Q 834 2675 834 2503 
Q 834 2394 903 2306 
Q 972 2216 1119 2156 
Q 1203 2125 1616 2013 
Q 2213 1853 2448 1751 
Q 2684 1650 2818 1456 
Q 2953 1263 2953 975 
Q 2953 694 2789 445 
Q 2625 197 2315 61 
Q 2006 -75 1616 -75 
Q 969 -75 630 194 
Q 291 463 197 991 
z
" transform="scale(0.015625)"/>
       <path id="ArialMT-75" d="M 2597 0 
L 2597 488 
Q 2209 -75 1544 -75 
Q 1250 -75 995 37 
Q 741 150 617 320 
Q 494 491 444 738 
Q 409 903 409 1263 
L 409 3319 
L 972 3319 
L 972 1478 
Q 972 1038 1006 884 
Q 1059 663 1231 536 
Q 1403 409 1656 409 
Q 1909 409 2131 539 
Q 2353 669 2445 892 
Q 2538 1116 2538 1541 
L 2538 3319 
L 3100 3319 
L 3100 0 
L 2597 0 
z
" transform="scale(0.015625)"/>
       <path id="ArialMT-6c" d="M 409 0 
L 409 4581 
L 972 4581 
L 972 0 
L 409 0 
z
" transform="scale(0.015625)"/>
      </defs>
      <use xlink:href="#ArialMT-63"/>
      <use xlink:href="#ArialMT-6f" transform="translate(50 0)"/>
      <use xlink:href="#ArialMT-6e" transform="translate(105.615234 0)"/>
      <use xlink:href="#ArialMT-6e" transform="translate(161.230469 0)"/>
      <use xlink:href="#ArialMT-65" transform="translate(216.845703 0)"/>
      <use xlink:href="#ArialMT-63" transform="translate(272.460938 0)"/>
      <use xlink:href="#ArialMT-74" transform="translate(322.460938 0)"/>
      <use xlink:href="#ArialMT-69" transform="translate(350.244141 0)"/>
      <use xlink:href="#ArialMT-76" transform="translate(372.460938 0)"/>
      <use xlink:href="#ArialMT-65" transform="translate(422.460938 0)"/>
      <use xlink:href="#ArialMT-20" transform="translate(478.076172 0)"/>
      <use xlink:href="#ArialMT-74" transform="translate(505.859375 0)"/>
      <use xlink:href="#ArialMT-69" transform="translate(533.642578 0)"/>
      <use xlink:href="#ArialMT-73" transform="translate(555.859375 0)"/>
      <use xlink:href="#ArialMT-73" transform="translate(605.859375 0)"/>
      <use xlink:href="#ArialMT-75" transform="translate(655.859375 0)"/>
      <use xlink:href="#ArialMT-65" transform="translate(711.474609 0)"/>
      <use xlink:href="#ArialMT-20" transform="translate(767.089844 0)"/>
      <use xlink:href="#ArialMT-63" transform="translate(794.873047 0)"/>
      <use xlink:href="#ArialMT-65" transform="translate(844.873047 0)"/>
      <use xlink:href="#ArialMT-6c" transform="translate(900.488281 0)"/>
      <use xlink:href="#ArialMT-6c" transform="translate(922.705078 0)"/>
     </g>
    </g>
    <g id="patch_4">
     <path d="M 152.565 108.584062 
L 176.565 108.584062 
L 176.565 100.184062 
L 152.565 100.184062 
z
" style="fill: #b2df8a; stroke: #b2df8a; stroke-linejoin: miter"/>
    </g>
    <g id="text_2">
     <!-- endothelial cell -->
     <g style="fill: #262626" transform="translate(186.165 108.584062) scale(0.12 -0.12)">
      <defs>
       <path id="ArialMT-64" d="M 2575 0 
L 2575 419 
Q 2259 -75 1647 -75 
Q 1250 -75 917 144 
Q 584 363 401 755 
Q 219 1147 219 1656 
Q 219 2153 384 2558 
Q 550 2963 881 3178 
Q 1213 3394 1622 3394 
Q 1922 3394 2156 3267 
Q 2391 3141 2538 2938 
L 2538 4581 
L 3097 4581 
L 3097 0 
L 2575 0 
z
M 797 1656 
Q 797 1019 1065 703 
Q 1334 388 1700 388 
Q 2069 388 2326 689 
Q 2584 991 2584 1609 
Q 2584 2291 2321 2609 
Q 2059 2928 1675 2928 
Q 1300 2928 1048 2622 
Q 797 2316 797 1656 
z
" transform="scale(0.015625)"/>
       <path id="ArialMT-68" d="M 422 0 
L 422 4581 
L 984 4581 
L 984 2938 
Q 1378 3394 1978 3394 
Q 2347 3394 2619 3248 
Q 2891 3103 3008 2847 
Q 3125 2591 3125 2103 
L 3125 0 
L 2563 0 
L 2563 2103 
Q 2563 2525 2380 2717 
Q 2197 2909 1863 2909 
Q 1613 2909 1392 2779 
Q 1172 2650 1078 2428 
Q 984 2206 984 1816 
L 984 0 
L 422 0 
z
" transform="scale(0.015625)"/>
       <path id="ArialMT-61" d="M 2588 409 
Q 2275 144 1986 34 
Q 1697 -75 1366 -75 
Q 819 -75 525 192 
Q 231 459 231 875 
Q 231 1119 342 1320 
Q 453 1522 633 1644 
Q 813 1766 1038 1828 
Q 1203 1872 1538 1913 
Q 2219 1994 2541 2106 
Q 2544 2222 2544 2253 
Q 2544 2597 2384 2738 
Q 2169 2928 1744 2928 
Q 1347 2928 1158 2789 
Q 969 2650 878 2297 
L 328 2372 
Q 403 2725 575 2942 
Q 747 3159 1072 3276 
Q 1397 3394 1825 3394 
Q 2250 3394 2515 3294 
Q 2781 3194 2906 3042 
Q 3031 2891 3081 2659 
Q 3109 2516 3109 2141 
L 3109 1391 
Q 3109 606 3145 398 
Q 3181 191 3288 0 
L 2700 0 
Q 2613 175 2588 409 
z
M 2541 1666 
Q 2234 1541 1622 1453 
Q 1275 1403 1131 1340 
Q 988 1278 909 1158 
Q 831 1038 831 891 
Q 831 666 1001 516 
Q 1172 366 1500 366 
Q 1825 366 2078 508 
Q 2331 650 2450 897 
Q 2541 1088 2541 1459 
L 2541 1666 
z
" transform="scale(0.015625)"/>
      </defs>
      <use xlink:href="#ArialMT-65"/>
      <use xlink:href="#ArialMT-6e" transform="translate(55.615234 0)"/>
      <use xlink:href="#ArialMT-64" transform="translate(111.230469 0)"/>
      <use xlink:href="#ArialMT-6f" transform="translate(166.845703 0)"/>
      <use xlink:href="#ArialMT-74" transform="translate(222.460938 0)"/>
      <use xlink:href="#ArialMT-68" transform="translate(250.244141 0)"/>
      <use xlink:href="#ArialMT-65" transform="translate(305.859375 0)"/>
      <use xlink:href="#ArialMT-6c" transform="translate(361.474609 0)"/>
      <use xlink:href="#ArialMT-69" transform="translate(383.691406 0)"/>
      <use xlink:href="#ArialMT-61" transform="translate(405.908203 0)"/>
      <use xlink:href="#ArialMT-6c" transform="translate(461.523438 0)"/>
      <use xlink:href="#ArialMT-20" transform="translate(483.740234 0)"/>
      <use xlink:href="#ArialMT-63" transform="translate(511.523438 0)"/>
      <use xlink:href="#ArialMT-65" transform="translate(561.523438 0)"/>
      <use xlink:href="#ArialMT-6c" transform="translate(617.138672 0)"/>
      <use xlink:href="#ArialMT-6c" transform="translate(639.355469 0)"/>
     </g>
    </g>
    <g id="patch_5">
     <path d="M 152.565 125.558437 
L 176.565 125.558437 
L 176.565 117.158437 
L 152.565 117.158437 
z
" style="fill: #e31a1c; stroke: #e31a1c; stroke-linejoin: miter"/>
    </g>
    <g id="text_3">
     <!-- epithelial cell -->
     <g style="fill: #262626" transform="translate(186.165 125.558437) scale(0.12 -0.12)">
      <defs>
       <path id="ArialMT-70" d="M 422 -1272 
L 422 3319 
L 934 3319 
L 934 2888 
Q 1116 3141 1344 3267 
Q 1572 3394 1897 3394 
Q 2322 3394 2647 3175 
Q 2972 2956 3137 2557 
Q 3303 2159 3303 1684 
Q 3303 1175 3120 767 
Q 2938 359 2589 142 
Q 2241 -75 1856 -75 
Q 1575 -75 1351 44 
Q 1128 163 984 344 
L 984 -1272 
L 422 -1272 
z
M 931 1641 
Q 931 1000 1190 694 
Q 1450 388 1819 388 
Q 2194 388 2461 705 
Q 2728 1022 2728 1688 
Q 2728 2322 2467 2637 
Q 2206 2953 1844 2953 
Q 1484 2953 1207 2617 
Q 931 2281 931 1641 
z
" transform="scale(0.015625)"/>
      </defs>
      <use xlink:href="#ArialMT-65"/>
      <use xlink:href="#ArialMT-70" transform="translate(55.615234 0)"/>
      <use xlink:href="#ArialMT-69" transform="translate(111.230469 0)"/>
      <use xlink:href="#ArialMT-74" transform="translate(133.447266 0)"/>
      <use xlink:href="#ArialMT-68" transform="translate(161.230469 0)"/>
      <use xlink:href="#ArialMT-65" transform="translate(216.845703 0)"/>
      <use xlink:href="#ArialMT-6c" transform="translate(272.460938 0)"/>
      <use xlink:href="#ArialMT-69" transform="translate(294.677734 0)"/>
      <use xlink:href="#ArialMT-61" transform="translate(316.894531 0)"/>
      <use xlink:href="#ArialMT-6c" transform="translate(372.509766 0)"/>
      <use xlink:href="#ArialMT-20" transform="translate(394.726562 0)"/>
      <use xlink:href="#ArialMT-63" transform="translate(422.509766 0)"/>
      <use xlink:href="#ArialMT-65" transform="translate(472.509766 0)"/>
      <use xlink:href="#ArialMT-6c" transform="translate(528.125 0)"/>
      <use xlink:href="#ArialMT-6c" transform="translate(550.341797 0)"/>
     </g>
    </g>
    <g id="patch_6">
     <path d="M 152.565 142.532812 
L 176.565 142.532812 
L 176.565 134.132812 
L 152.565 134.132812 
z
" style="fill: #cab2d6; stroke: #cab2d6; stroke-linejoin: miter"/>
    </g>
    <g id="text_4">
     <!-- germ line cell -->
     <g style="fill: #262626" transform="translate(186.165 142.532812) scale(0.12 -0.12)">
      <defs>
       <path id="ArialMT-67" d="M 319 -275 
L 866 -356 
Q 900 -609 1056 -725 
Q 1266 -881 1628 -881 
Q 2019 -881 2231 -725 
Q 2444 -569 2519 -288 
Q 2563 -116 2559 434 
Q 2191 0 1641 0 
Q 956 0 581 494 
Q 206 988 206 1678 
Q 206 2153 378 2554 
Q 550 2956 876 3175 
Q 1203 3394 1644 3394 
Q 2231 3394 2613 2919 
L 2613 3319 
L 3131 3319 
L 3131 450 
Q 3131 -325 2973 -648 
Q 2816 -972 2473 -1159 
Q 2131 -1347 1631 -1347 
Q 1038 -1347 672 -1080 
Q 306 -813 319 -275 
z
M 784 1719 
Q 784 1066 1043 766 
Q 1303 466 1694 466 
Q 2081 466 2343 764 
Q 2606 1063 2606 1700 
Q 2606 2309 2336 2618 
Q 2066 2928 1684 2928 
Q 1309 2928 1046 2623 
Q 784 2319 784 1719 
z
" transform="scale(0.015625)"/>
       <path id="ArialMT-72" d="M 416 0 
L 416 3319 
L 922 3319 
L 922 2816 
Q 1116 3169 1280 3281 
Q 1444 3394 1641 3394 
Q 1925 3394 2219 3213 
L 2025 2691 
Q 1819 2813 1613 2813 
Q 1428 2813 1281 2702 
Q 1134 2591 1072 2394 
Q 978 2094 978 1738 
L 978 0 
L 416 0 
z
" transform="scale(0.015625)"/>
       <path id="ArialMT-6d" d="M 422 0 
L 422 3319 
L 925 3319 
L 925 2853 
Q 1081 3097 1340 3245 
Q 1600 3394 1931 3394 
Q 2300 3394 2536 3241 
Q 2772 3088 2869 2813 
Q 3263 3394 3894 3394 
Q 4388 3394 4653 3120 
Q 4919 2847 4919 2278 
L 4919 0 
L 4359 0 
L 4359 2091 
Q 4359 2428 4304 2576 
Q 4250 2725 4106 2815 
Q 3963 2906 3769 2906 
Q 3419 2906 3187 2673 
Q 2956 2441 2956 1928 
L 2956 0 
L 2394 0 
L 2394 2156 
Q 2394 2531 2256 2718 
Q 2119 2906 1806 2906 
Q 1569 2906 1367 2781 
Q 1166 2656 1075 2415 
Q 984 2175 984 1722 
L 984 0 
L 422 0 
z
" transform="scale(0.015625)"/>
      </defs>
      <use xlink:href="#ArialMT-67"/>
      <use xlink:href="#ArialMT-65" transform="translate(55.615234 0)"/>
      <use xlink:href="#ArialMT-72" transform="translate(111.230469 0)"/>
      <use xlink:href="#ArialMT-6d" transform="translate(144.53125 0)"/>
      <use xlink:href="#ArialMT-20" transform="translate(227.832031 0)"/>
      <use xlink:href="#ArialMT-6c" transform="translate(255.615234 0)"/>
      <use xlink:href="#ArialMT-69" transform="translate(277.832031 0)"/>
      <use xlink:href="#ArialMT-6e" transform="translate(300.048828 0)"/>
      <use xlink:href="#ArialMT-65" transform="translate(355.664062 0)"/>
      <use xlink:href="#ArialMT-20" transform="translate(411.279297 0)"/>
      <use xlink:href="#ArialMT-63" transform="translate(439.0625 0)"/>
      <use xlink:href="#ArialMT-65" transform="translate(489.0625 0)"/>
      <use xlink:href="#ArialMT-6c" transform="translate(544.677734 0)"/>
      <use xlink:href="#ArialMT-6c" transform="translate(566.894531 0)"/>
     </g>
    </g>
    <g id="patch_7">
     <path d="M 152.565 159.647812 
L 176.565 159.647812 
L 176.565 151.247812 
L 152.565 151.247812 
z
" style="fill: #33a02c; stroke: #33a02c; stroke-linejoin: miter"/>
    </g>
    <g id="text_5">
     <!-- hematopoietic cell -->
     <g style="fill: #262626" transform="translate(186.165 159.647812) scale(0.12 -0.12)">
      <use xlink:href="#ArialMT-68"/>
      <use xlink:href="#ArialMT-65" transform="translate(55.615234 0)"/>
      <use xlink:href="#ArialMT-6d" transform="translate(111.230469 0)"/>
      <use xlink:href="#ArialMT-61" transform="translate(194.53125 0)"/>
      <use xlink:href="#ArialMT-74" transform="translate(250.146484 0)"/>
      <use xlink:href="#ArialMT-6f" transform="translate(277.929688 0)"/>
      <use xlink:href="#ArialMT-70" transform="translate(333.544922 0)"/>
      <use xlink:href="#ArialMT-6f" transform="translate(389.160156 0)"/>
      <use xlink:href="#ArialMT-69" transform="translate(444.775391 0)"/>
      <use xlink:href="#ArialMT-65" transform="translate(466.992188 0)"/>
      <use xlink:href="#ArialMT-74" transform="translate(522.607422 0)"/>
      <use xlink:href="#ArialMT-69" transform="translate(550.390625 0)"/>
      <use xlink:href="#ArialMT-63" transform="translate(572.607422 0)"/>
      <use xlink:href="#ArialMT-20" transform="translate(622.607422 0)"/>
      <use xlink:href="#ArialMT-63" transform="translate(650.390625 0)"/>
      <use xlink:href="#ArialMT-65" transform="translate(700.390625 0)"/>
      <use xlink:href="#ArialMT-6c" transform="translate(756.005859 0)"/>
      <use xlink:href="#ArialMT-6c" transform="translate(778.222656 0)"/>
     </g>
    </g>
    <g id="patch_8">
     <path d="M 152.565 176.622187 
L 176.565 176.622187 
L 176.565 168.222187 
L 152.565 168.222187 
z
" style="fill: #ffff99; stroke: #ffff99; stroke-linejoin: miter"/>
    </g>
    <g id="text_6">
     <!-- melanocyte -->
     <g style="fill: #262626" transform="translate(186.165 176.622187) scale(0.12 -0.12)">
      <defs>
       <path id="ArialMT-79" d="M 397 -1278 
L 334 -750 
Q 519 -800 656 -800 
Q 844 -800 956 -737 
Q 1069 -675 1141 -563 
Q 1194 -478 1313 -144 
Q 1328 -97 1363 -6 
L 103 3319 
L 709 3319 
L 1400 1397 
Q 1534 1031 1641 628 
Q 1738 1016 1872 1384 
L 2581 3319 
L 3144 3319 
L 1881 -56 
Q 1678 -603 1566 -809 
Q 1416 -1088 1222 -1217 
Q 1028 -1347 759 -1347 
Q 597 -1347 397 -1278 
z
" transform="scale(0.015625)"/>
      </defs>
      <use xlink:href="#ArialMT-6d"/>
      <use xlink:href="#ArialMT-65" transform="translate(83.300781 0)"/>
      <use xlink:href="#ArialMT-6c" transform="translate(138.916016 0)"/>
      <use xlink:href="#ArialMT-61" transform="translate(161.132812 0)"/>
      <use xlink:href="#ArialMT-6e" transform="translate(216.748047 0)"/>
      <use xlink:href="#ArialMT-6f" transform="translate(272.363281 0)"/>
      <use xlink:href="#ArialMT-63" transform="translate(327.978516 0)"/>
      <use xlink:href="#ArialMT-79" transform="translate(377.978516 0)"/>
      <use xlink:href="#ArialMT-74" transform="translate(427.978516 0)"/>
      <use xlink:href="#ArialMT-65" transform="translate(455.761719 0)"/>
     </g>
    </g>
    <g id="patch_9">
     <path d="M 152.565 193.737188 
L 176.565 193.737188 
L 176.565 185.337187 
L 152.565 185.337187 
z
" style="fill: #fb9a99; stroke: #fb9a99; stroke-linejoin: miter"/>
    </g>
    <g id="text_7">
     <!-- muscle cell -->
     <g style="fill: #262626" transform="translate(186.165 193.737188) scale(0.12 -0.12)">
      <use xlink:href="#ArialMT-6d"/>
      <use xlink:href="#ArialMT-75" transform="translate(83.300781 0)"/>
      <use xlink:href="#ArialMT-73" transform="translate(138.916016 0)"/>
      <use xlink:href="#ArialMT-63" transform="translate(188.916016 0)"/>
      <use xlink:href="#ArialMT-6c" transform="translate(238.916016 0)"/>
      <use xlink:href="#ArialMT-65" transform="translate(261.132812 0)"/>
      <use xlink:href="#ArialMT-20" transform="translate(316.748047 0)"/>
      <use xlink:href="#ArialMT-63" transform="translate(344.53125 0)"/>
      <use xlink:href="#ArialMT-65" transform="translate(394.53125 0)"/>
      <use xlink:href="#ArialMT-6c" transform="translate(450.146484 0)"/>
      <use xlink:href="#ArialMT-6c" transform="translate(472.363281 0)"/>
     </g>
    </g>
    <g id="patch_10">
     <path d="M 152.565 210.711563 
L 176.565 210.711563 
L 176.565 202.311563 
L 152.565 202.311563 
z
" style="fill: #fdbf6f; stroke: #fdbf6f; stroke-linejoin: miter"/>
    </g>
    <g id="text_8">
     <!-- neural cell -->
     <g style="fill: #262626" transform="translate(186.165 210.711563) scale(0.12 -0.12)">
      <use xlink:href="#ArialMT-6e"/>
      <use xlink:href="#ArialMT-65" transform="translate(55.615234 0)"/>
      <use xlink:href="#ArialMT-75" transform="translate(111.230469 0)"/>
      <use xlink:href="#ArialMT-72" transform="translate(166.845703 0)"/>
      <use xlink:href="#ArialMT-61" transform="translate(200.146484 0)"/>
      <use xlink:href="#ArialMT-6c" transform="translate(255.761719 0)"/>
      <use xlink:href="#ArialMT-20" transform="translate(277.978516 0)"/>
      <use xlink:href="#ArialMT-63" transform="translate(305.761719 0)"/>
      <use xlink:href="#ArialMT-65" transform="translate(355.761719 0)"/>
      <use xlink:href="#ArialMT-6c" transform="translate(411.376953 0)"/>
      <use xlink:href="#ArialMT-6c" transform="translate(433.59375 0)"/>
     </g>
    </g>
    <g id="patch_11">
     <path d="M 152.565 227.685937 
L 176.565 227.685937 
L 176.565 219.285937 
L 152.565 219.285937 
z
" style="stroke: #000000; stroke-linejoin: miter"/>
    </g>
    <g id="text_9">
     <!-- not crosswalked -->
     <g style="fill: #262626" transform="translate(186.165 227.685937) scale(0.12 -0.12)">
      <defs>
       <path id="ArialMT-77" d="M 1034 0 
L 19 3319 
L 600 3319 
L 1128 1403 
L 1325 691 
Q 1338 744 1497 1375 
L 2025 3319 
L 2603 3319 
L 3100 1394 
L 3266 759 
L 3456 1400 
L 4025 3319 
L 4572 3319 
L 3534 0 
L 2950 0 
L 2422 1988 
L 2294 2553 
L 1622 0 
L 1034 0 
z
" transform="scale(0.015625)"/>
       <path id="ArialMT-6b" d="M 425 0 
L 425 4581 
L 988 4581 
L 988 1969 
L 2319 3319 
L 3047 3319 
L 1778 2088 
L 3175 0 
L 2481 0 
L 1384 1697 
L 988 1316 
L 988 0 
L 425 0 
z
" transform="scale(0.015625)"/>
      </defs>
      <use xlink:href="#ArialMT-6e"/>
      <use xlink:href="#ArialMT-6f" transform="translate(55.615234 0)"/>
      <use xlink:href="#ArialMT-74" transform="translate(111.230469 0)"/>
      <use xlink:href="#ArialMT-20" transform="translate(139.013672 0)"/>
      <use xlink:href="#ArialMT-63" transform="translate(166.796875 0)"/>
      <use xlink:href="#ArialMT-72" transform="translate(216.796875 0)"/>
      <use xlink:href="#ArialMT-6f" transform="translate(250.097656 0)"/>
      <use xlink:href="#ArialMT-73" transform="translate(305.712891 0)"/>
      <use xlink:href="#ArialMT-73" transform="translate(355.712891 0)"/>
      <use xlink:href="#ArialMT-77" transform="translate(405.712891 0)"/>
      <use xlink:href="#ArialMT-61" transform="translate(477.929688 0)"/>
      <use xlink:href="#ArialMT-6c" transform="translate(533.544922 0)"/>
      <use xlink:href="#ArialMT-6b" transform="translate(555.761719 0)"/>
      <use xlink:href="#ArialMT-65" transform="translate(605.761719 0)"/>
      <use xlink:href="#ArialMT-64" transform="translate(661.376953 0)"/>
     </g>
    </g>
    <g id="patch_12">
     <path d="M 152.565 244.660313 
L 176.565 244.660313 
L 176.565 236.260312 
L 152.565 236.260312 
z
" style="fill: #808080; stroke: #808080; stroke-linejoin: miter"/>
    </g>
    <g id="text_10">
     <!-- not mapped parent cell -->
     <g style="fill: #262626" transform="translate(186.165 244.660313) scale(0.12 -0.12)">
      <use xlink:href="#ArialMT-6e"/>
      <use xlink:href="#ArialMT-6f" transform="translate(55.615234 0)"/>
      <use xlink:href="#ArialMT-74" transform="translate(111.230469 0)"/>
      <use xlink:href="#ArialMT-20" transform="translate(139.013672 0)"/>
      <use xlink:href="#ArialMT-6d" transform="translate(166.796875 0)"/>
      <use xlink:href="#ArialMT-61" transform="translate(250.097656 0)"/>
      <use xlink:href="#ArialMT-70" transform="translate(305.712891 0)"/>
      <use xlink:href="#ArialMT-70" transform="translate(361.328125 0)"/>
      <use xlink:href="#ArialMT-65" transform="translate(416.943359 0)"/>
      <use xlink:href="#ArialMT-64" transform="translate(472.558594 0)"/>
      <use xlink:href="#ArialMT-20" transform="translate(528.173828 0)"/>
      <use xlink:href="#ArialMT-70" transform="translate(555.957031 0)"/>
      <use xlink:href="#ArialMT-61" transform="translate(611.572266 0)"/>
      <use xlink:href="#ArialMT-72" transform="translate(667.1875 0)"/>
      <use xlink:href="#ArialMT-65" transform="translate(700.488281 0)"/>
      <use xlink:href="#ArialMT-6e" transform="translate(756.103516 0)"/>
      <use xlink:href="#ArialMT-74" transform="translate(811.71875 0)"/>
      <use xlink:href="#ArialMT-20" transform="translate(839.501953 0)"/>
      <use xlink:href="#ArialMT-63" transform="translate(867.285156 0)"/>
      <use xlink:href="#ArialMT-65" transform="translate(917.285156 0)"/>
      <use xlink:href="#ArialMT-6c" transform="translate(972.900391 0)"/>
      <use xlink:href="#ArialMT-6c" transform="translate(995.117188 0)"/>
     </g>
    </g>
    <g id="patch_13">
     <path d="M 152.565 261.634688 
L 176.565 261.634688 
L 176.565 253.234688 
L 152.565 253.234688 
z
" style="fill: #ff7f00; stroke: #ff7f00; stroke-linejoin: miter"/>
    </g>
    <g id="text_11">
     <!-- stem cell -->
     <g style="fill: #262626" transform="translate(186.165 261.634688) scale(0.12 -0.12)">
      <use xlink:href="#ArialMT-73"/>
      <use xlink:href="#ArialMT-74" transform="translate(50 0)"/>
      <use xlink:href="#ArialMT-65" transform="translate(77.783203 0)"/>
      <use xlink:href="#ArialMT-6d" transform="translate(133.398438 0)"/>
      <use xlink:href="#ArialMT-20" transform="translate(216.699219 0)"/>
      <use xlink:href="#ArialMT-63" transform="translate(244.482422 0)"/>
      <use xlink:href="#ArialMT-65" transform="translate(294.482422 0)"/>
      <use xlink:href="#ArialMT-6c" transform="translate(350.097656 0)"/>
      <use xlink:href="#ArialMT-6c" transform="translate(372.314453 0)"/>
     </g>
    </g>
   </g>
  </g>
 </g>
</svg>
